# xmcd CD database file
#
# Track frame offsets:
#	150
#	13937
#	27870
#	41657
#
# Disc length: 739 seconds
#
# Revision: 0
# Processed by: cddbd v1.5.2PL0 Copyright (c) Steve Scherf et al.
# Submitted via: CDex 1.70beta3
#
DISCID=2a02e104
DTITLE=BuZZ - LEAN ON ME
DYEAR=2017
DGENRE=VISION FACTORY
TTITLE0=LEAN ON ME
TTITLE1=CHOO SEXY
TTITLE2=LEAN ON ME (Instrumental)
TTITLE3=CHOO SEXY (Instrumental)
EXTD=YEAR: 2017
EXTT0=
EXTT1=
EXTT2=
EXTT3=
PLAYORDER=
